<svg id="STROKE" xmlns="http://www.w3.org/2000/svg" viewBox="0 0 24 24"><title>13</title><path d="M1.5,8.47l9.77,5.47a1.5,1.5,0,0,0,1.46,0L22.5,8.47h0A1,1,0,0,0,23,7.6a1,1,0,0,0-.52-.87L12.73,1.26a1.51,1.51,0,0,0-1.46,0L1.5,6.73A1,1,0,0,0,1,7.6,1,1,0,0,0,1.5,8.47ZM11.76,2.13a.51.51,0,0,1,.48,0L22,7.6l.24.44L22,7.6l-9.78,5.47a.51.51,0,0,1-.48,0L2,7.6Z"/><path d="M22.5,11.12l-1.11-.62a.49.49,0,0,0-.68.19.5.5,0,0,0,.19.68L22,12l-9.78,5.46a.46.46,0,0,1-.48,0L2,12l1.15-.64a.5.5,0,0,0-.49-.88l-1.14.64a1,1,0,0,0,0,1.75l9.77,5.47a1.5,1.5,0,0,0,1.46,0l9.77-5.47a1,1,0,0,0,0-1.75Z"/><path d="M22.5,15.53l-1.11-.63a.5.5,0,0,0-.68.2.51.51,0,0,0,.19.68L22,16.4l-9.78,5.47a.51.51,0,0,1-.48,0L2,16.4l1.15-.64a.51.51,0,0,0,.19-.68.5.5,0,0,0-.68-.19l-1.14.64A1,1,0,0,0,1,16.4a1,1,0,0,0,.52.87l9.77,5.47a1.5,1.5,0,0,0,1.46,0l9.77-5.47A1,1,0,0,0,23,16.4,1,1,0,0,0,22.5,15.53Z"/></svg>