<svg id="STROKE" xmlns="http://www.w3.org/2000/svg" viewBox="0 0 24 24"><title>90</title><path d="M12,8a4,4,0,1,0,4,4A4,4,0,0,0,12,8Zm0,7a3,3,0,1,1,3-3A3,3,0,0,1,12,15Z"/><path d="M14,18.74a.5.5,0,0,0-.5.5V20.5A1.47,1.47,0,0,1,13,21.64a1.5,1.5,0,0,1-1.23.34,1.59,1.59,0,0,1-1.24-1.59V19.24a1.5,1.5,0,0,0-2.56-1.06l-.89.89a1.5,1.5,0,0,1-2.29-.19,1.59,1.59,0,0,1,.24-2l.82-.81A1.5,1.5,0,0,0,4.76,13.5H3.5A1.47,1.47,0,0,1,2.36,13,1.51,1.51,0,0,1,2,11.74,1.59,1.59,0,0,1,3.61,10.5H4.76A1.5,1.5,0,0,0,5.82,7.94l-.89-.89a1.5,1.5,0,0,1,.19-2.29,1.59,1.59,0,0,1,2,.24l.81.82a.5.5,0,0,0,.71-.71L7.83,4.3A2.58,2.58,0,0,0,4.54,4a2.51,2.51,0,0,0-.32,3.81l.89.89a.48.48,0,0,1,.11.54.49.49,0,0,1-.46.31H3.61A2.59,2.59,0,0,0,1,11.58,2.5,2.5,0,0,0,3.5,14.5H4.76a.49.49,0,0,1,.46.31.48.48,0,0,1-.11.54l-.81.82A2.58,2.58,0,0,0,4,19.46a2.53,2.53,0,0,0,1.84,1,2.46,2.46,0,0,0,2-.72l.89-.89a.48.48,0,0,1,.54-.11.49.49,0,0,1,.31.46v1.15A2.59,2.59,0,0,0,11.58,23,3,3,0,0,0,12,23a2.49,2.49,0,0,0,2.5-2.5V19.24A.5.5,0,0,0,14,18.74Z"/><path d="M19.24,14.5H20.5A2.5,2.5,0,0,0,23,11.58,2.59,2.59,0,0,0,20.39,9.5H19.24a.49.49,0,0,1-.46-.31.48.48,0,0,1,.11-.54l.81-.82a2.58,2.58,0,0,0,.35-3.29,2.53,2.53,0,0,0-1.84-1,2.46,2.46,0,0,0-2,.72l-.89.89a.48.48,0,0,1-.54.11.49.49,0,0,1-.31-.46V3.61a2.5,2.5,0,0,0-4.12-2A2.52,2.52,0,0,0,9.5,3.5V4.76a.5.5,0,0,0,1,0V3.5A1.47,1.47,0,0,1,11,2.36,1.5,1.5,0,0,1,12.26,2,1.59,1.59,0,0,1,13.5,3.61V4.76a1.5,1.5,0,0,0,2.56,1.06L17,4.93a1.5,1.5,0,0,1,2.29.19,1.59,1.59,0,0,1-.24,2l-.82.81a1.5,1.5,0,0,0,1.06,2.56h1.15A1.59,1.59,0,0,1,22,11.74,1.51,1.51,0,0,1,21.64,13a1.47,1.47,0,0,1-1.14.53H19.24a1.5,1.5,0,0,0-1.06,2.56l.89.89a1.5,1.5,0,0,1-.19,2.29,1.59,1.59,0,0,1-2-.24l-.81-.82a.5.5,0,1,0-.71.71l.82.81a2.68,2.68,0,0,0,1.89.79,2.37,2.37,0,0,0,1.4-.44,2.53,2.53,0,0,0,1-1.84,2.49,2.49,0,0,0-.72-2l-.89-.89a.48.48,0,0,1-.11-.54A.49.49,0,0,1,19.24,14.5Z"/></svg>