<svg id="STROKE" xmlns="http://www.w3.org/2000/svg" viewBox="0 0 24 24"><title>54</title><path d="M23,12.5a.51.51,0,0,0,0-.13,11,11,0,0,0-22,0,.51.51,0,0,0,0,.13.28.28,0,0,0,0,.09c0,.13,0,.27,0,.41v8a1,1,0,0,0,1,1H5.5a.49.49,0,0,0,.38-.17A.48.48,0,0,0,6,21.42a28.49,28.49,0,0,1,0-8.84.48.48,0,0,0-.11-.41A.49.49,0,0,0,5.5,12H2.05A10,10,0,0,1,22,12H18.5a.49.49,0,0,0-.38.17.48.48,0,0,0-.11.41,28.49,28.49,0,0,1,0,8.84.48.48,0,0,0,.11.41.49.49,0,0,0,.38.17H22a1,1,0,0,0,1-1V13c0-.14,0-.28,0-.41A.28.28,0,0,0,23,12.5ZM4.92,13a29,29,0,0,0,0,8H2V13ZM22,21H19.08a29,29,0,0,0,0-8H22Z"/></svg>